<?xml version="1.0" encoding="utf-8"?>
<!-- Generator: Adobe Illustrator 27.5.0, SVG Export Plug-In . SVG Version: 6.00 Build 0)  -->
<svg version="1.1" xmlns="http://www.w3.org/2000/svg" xmlns:xlink="http://www.w3.org/1999/xlink" x="0px" y="0px"
	 viewBox="0 0 500 500" style="enable-background:new 0 0 500 500;" xml:space="preserve">
<g id="Background">
	<g>
		<rect style="fill:#FFFFFF;" width="500" height="500"/>
	</g>
</g>
<g id="Objects">
	<g>
		<defs>
			<rect id="SVGID_1_" width="500" height="500"/>
		</defs>
		<clipPath id="SVGID_00000040573976779145006190000003343289268675186330_">
			<use xlink:href="#SVGID_1_"  style="overflow:visible;"/>
		</clipPath>
		<g style="clip-path:url(#SVGID_00000040573976779145006190000003343289268675186330_);">
			
				<ellipse transform="matrix(0.7071 -0.7071 0.7071 0.7071 -60.2147 265.8903)" style="opacity:0.14;fill:#00D3C2;" cx="290.851" cy="205.631" rx="167.433" ry="167.433"/>
			<path style="fill:#FFB681;" d="M-55.607,374.826c0,0,106.667-34.134,127.663-69.999c19.083-32.598,72.155-41.31,81.314-48.013
				c12.905-9.445,44.303-26.638,57.424-28.104c12.386-1.384,23.583,6.73,19.954,20.13c-4.291,15.848-68.611,40.819-68.611,40.819
				s-2.199,33.37,44.767,42.007c46.966,8.637,67.48,5.578,92.852-1.979c25.372-7.558,31.85-9.177,31.85-9.177
				s5.931-19.374,14.91-23.863c9.717-4.859,17.635-0.72,19.434,2.159c1.799,2.879-8.568,32.549-11.897,41.366
				c-3.329,8.817-29.361,28.694-29.361,28.694c-2.341,1.786-4.263,4.059-5.639,6.662c-5.296,10.02-20.202,33.248-25.415,35.855
				c-6.478,3.239-24.473,7.198-24.473,7.198s-3.262,6.997-17.393,14.658c-16.947,9.187-29.419,23.454-63.968,21.655
				c-22.215-1.157-79.56-18.203-126.323-5.966c-19.885,5.203-120.899,79.62-120.899,79.62L-55.607,374.826z"/>
			<g>
				<g>
					<g>
						<g>
							<g>
								<g style="enable-background:new    ;">
									<g style="opacity:0.11;">
										<path style="opacity:0.9608;fill:#1D4B5B;enable-background:new    ;" d="M295.355,236.47
											c-3.627-2.084-9.492-2.084-13.119,0L73.954,357.551c-3.55,2.084-3.55,5.479,0.077,7.562l108.424,62.585
											c3.627,2.084,9.492,2.084,13.119,0l208.205-121.08c3.55-2.084,3.55-5.479-0.077-7.562L295.355,236.47z"/>
									</g>
									<g style="opacity:0.9608;enable-background:new    ;">
										<path style="fill:#1D546D;" d="M405.956,288.725v15.146c0.155-0.077,0.232-0.154,0.386-0.232v-15.145
											C406.264,288.571,406.11,288.647,405.956,288.725"/>
										<path style="fill:#1D546D;" d="M406.342,288.494v15.145c1.543-1.003,2.314-2.238,2.314-3.549v-15.146
											C408.657,286.255,407.885,287.49,406.342,288.494"/>
									</g>
									<g style="opacity:0.9608;enable-background:new    ;">
										<path style="fill:#1D546D;" d="M73.429,343.439v15.146c0,0.927,0.386,1.853,1.235,2.624v-15.146
											C73.816,345.291,73.429,344.365,73.429,343.439"/>
										<path style="fill:#1D546D;" d="M74.664,346.062v15.146c0.386,0.386,0.927,0.772,1.544,1.158V347.22
											C75.591,346.911,75.05,346.525,74.664,346.062"/>
									</g>
									<g>
										<path style="opacity:0.9608;fill:#1D546D;enable-background:new    ;" d="M297.532,218.577
											c-3.627-2.083-9.492-2.083-13.119,0L76.13,339.657c-3.55,2.084-3.55,5.479,0.077,7.563l108.424,62.585
											c3.627,2.083,9.492,2.083,13.119,0l208.205-121.08c3.55-2.084,3.55-5.479-0.077-7.563L297.532,218.577z"/>
									</g>
									<g style="enable-background:new    ;">
										<g>
											<g style="opacity:0.9608;enable-background:new    ;">
												<path style="fill:#1D546D;" d="M184.555,409.805v15.146c0.154,0.077,0.309,0.154,0.463,0.232v-15.146
													C184.864,409.96,184.709,409.882,184.555,409.805"/>
												<path style="fill:#1D546D;" d="M185.018,410.114v15.146c2.933,1.466,7.177,1.698,10.573,0.618v-15.146
													C192.271,411.811,188.027,411.58,185.018,410.114"/>
												<path style="fill:#1D546D;" d="M195.59,410.731v15.146c0.771-0.232,1.466-0.54,2.084-0.926v-15.146
													C197.056,410.19,196.362,410.499,195.59,410.731"/>
											</g>
											<path style="fill:#164859;" d="M405.956,288.725l-208.283,121.08c-3.627,2.083-9.491,2.083-13.118,0L75.444,346.779
												c-1.324-0.95-2.015-2.145-2.015-3.34v15.145c0,1.237,0.738,2.472,2.151,3.436l0,0.029l108.974,62.902
												c3.627,2.084,9.491,2.084,13.118,0l208.283-121.08c1.775-1.003,2.701-2.392,2.701-3.781v-15.146
												C408.657,286.332,407.731,287.645,405.956,288.725z"/>
										</g>
									</g>
								</g>
							</g>
						</g>
					</g>
					<g>
						<polygon style="fill:#EDF8FF;" points="270.136,231.001 101.056,329.316 213.725,394.448 382.882,296.133 						"/>
					</g>
					<path style="fill:#173E49;" d="M353.712,264.339c-0.926-0.54-2.469-0.54-3.472,0c-0.926,0.54-0.926,1.466,0,2.006
						c0.926,0.54,2.469,0.54,3.472,0C354.715,265.728,354.715,264.879,353.712,264.339z"/>
					<path style="fill:#173E49;" d="M331.178,251.838c-0.695-0.386-1.775-0.386-2.47,0c-0.694,0.386-0.694,1.003,0,1.389
						l14.817,8.566c0.694,0.386,1.775,0.386,2.469,0c0.695-0.386,0.695-1.003,0-1.466L331.178,251.838z"/>
					<g>
						<path style="fill:none;stroke:#EDF8FF;stroke-width:0.7717;stroke-miterlimit:10;" d="M144.417,368.036
							c-0.763-0.453-2.033-0.453-2.796,0l-1.779,1.044c-0.762,0.452-0.762,1.186,0,1.609l2.021,1.167
							c0.762,0.452,2.033,0.452,2.796,0l1.779-1.045c0.762-0.452,0.762-1.186,0-1.609L144.417,368.036z"/>
						<g>
							
								<line style="fill:none;stroke:#EDF8FF;stroke-width:0.7717;stroke-linecap:round;stroke-miterlimit:10;" x1="179.753" y1="388.658" x2="175.9" y2="386.443"/>
							
								<line style="fill:none;stroke:#EDF8FF;stroke-width:0.7717;stroke-linecap:round;stroke-miterlimit:10;" x1="178.344" y1="389.621" x2="174.49" y2="387.407"/>
							
								<line style="fill:none;stroke:#EDF8FF;stroke-width:0.7717;stroke-linecap:round;stroke-miterlimit:10;" x1="176.771" y1="390.684" x2="172.918" y2="388.47"/>
						</g>
						
							<polyline style="fill:none;stroke:#EDF8FF;stroke-width:0.7717;stroke-linecap:round;stroke-linejoin:round;stroke-miterlimit:10;" points="
							111.793,350.09 112.48,353.38 108.456,353.38 						"/>
					</g>
				</g>
				<polygon style="fill:#C7E0EF;" points="365.947,306.161 382.882,296.133 270.136,231.001 253.278,241.029 				"/>
				<g>
					<polygon style="fill:#FFFFFF;" points="194.783,284.345 191.855,286 286.388,340.593 289.364,338.936 					"/>
				</g>
				<g>
					<polygon style="fill:#FFFFFF;" points="183.774,290.998 180.846,292.654 275.379,347.246 278.355,345.59 					"/>
				</g>
				<g>
					<polygon style="fill:#FFFFFF;" points="172.523,297.41 169.595,299.066 264.128,353.658 267.104,352.003 					"/>
				</g>
				<g>
					<polygon style="fill:#FFFFFF;" points="161.514,304.064 158.586,305.72 253.119,360.311 256.095,358.656 					"/>
				</g>
				<g>
					<g>
						<path style="fill:#00D3C2;" d="M360.321,289.301c0.797,0.46,0.802,1.214,0.007,1.676l-67.056,39.121
							c-0.792,0.46-2.094,0.46-2.891,0l-89.776-51.856c-0.798-0.46-0.802-1.214-0.01-1.674l67.056-39.121
							c0.795-0.462,2.096-0.462,2.894-0.002L360.321,289.301z"/>
					</g>
				</g>
				<g>
					<g>
						<path style="fill:#00D3C2;" d="M217.979,359.118c4.712,2.721,4.731,7.13,0.049,9.85c-4.682,2.721-12.293,2.724-17.006,0.004
							l-55.988-32.325c-4.712-2.721-4.737-7.133-0.055-9.854c4.682-2.721,12.3-2.721,17.012,0L217.979,359.118z"/>
					</g>
					<g>
						<g style="enable-background:new    ;">
							<g>
								<path style="fill:#FFFFFF;" d="M158.508,331.156c0.07,0.825-0.501,1.582-1.713,2.287c-1.205,0.701-2.524,1.049-3.949,1.034
									c-1.432-0.011-2.891-0.447-4.38-1.306l-2.675-1.545l7.759-4.509l2.767,1.598
									C157.708,329.517,158.438,330.331,158.508,331.156z M152.616,333.099c0.824,0.015,1.62-0.197,2.389-0.644
									c0.762-0.443,1.132-0.909,1.116-1.393c-0.022-0.488-0.476-0.984-1.361-1.496l-0.977-0.564l-4.717,2.741l1.108,0.64
									C150.974,332.845,151.786,333.08,152.616,333.099"/>
							</g>
						</g>
						<g style="enable-background:new    ;">
							<g>
								<polygon style="fill:#FFFFFF;" points="163.898,333.091 156.139,337.6 154.394,336.593 162.154,332.084 								"/>
							</g>
						</g>
						<g style="enable-background:new    ;">
							<g>
								<path style="fill:#FFFFFF;" d="M169.865,336.536l-4.382,6.459l-1.856-1.071l0.947-1.393l-3.279-1.893l-2.396,0.557
									l-1.856-1.071l11.13-2.563L169.865,336.536z M163.482,338.134l1.954,1.128l1.284-1.87L163.482,338.134"/>
							</g>
						</g>
						<g style="enable-background:new    ;">
							<g>
								<path style="fill:#FFFFFF;" d="M177.943,340.988c1.121,0.647,1.727,1.427,1.824,2.328l-2.208,0.235
									c-0.041-0.379-0.154-0.685-0.332-0.924c-0.184-0.235-0.447-0.454-0.788-0.651c-0.662-0.382-1.448-0.579-2.35-0.579
									c-0.902,0-1.718,0.208-2.454,0.636c-0.736,0.428-1.106,0.894-1.103,1.401c-0.01,0.507,0.293,0.939,0.896,1.287
									c0.603,0.348,1.225,0.572,1.854,0.67l2.137-1.242l1.757,1.015l-2.756,1.602c-1.64,0.049-3.139-0.318-4.51-1.109
									c-1.154-0.666-1.734-1.439-1.758-2.328c-0.025-0.89,0.54-1.666,1.693-2.336c1.153-0.67,2.504-0.999,4.066-0.988
									C175.473,340.015,176.821,340.341,177.943,340.988z"/>
							</g>
						</g>
						<g style="enable-background:new    ;">
							<g>
								<polygon style="fill:#FFFFFF;" points="189.741,348.011 181.982,352.521 180.237,351.513 181.373,346.539 176.513,349.363 
									174.768,348.356 182.528,343.847 184.16,344.789 183,349.908 187.997,347.004 								"/>
							</g>
						</g>
						<g style="enable-background:new    ;">
							<g>
								<path style="fill:#FFFFFF;" d="M197.269,353.482c0.018,0.901-0.533,1.685-1.673,2.347c-1.14,0.663-2.491,0.984-4.047,0.977
									c-1.562-0.011-2.911-0.352-4.065-1.018c-1.154-0.666-1.753-1.45-1.771-2.351c-0.025-0.905,0.533-1.685,1.673-2.347
									c1.14-0.663,2.485-0.988,4.047-0.977c1.556,0.007,2.917,0.348,4.071,1.015S197.244,352.577,197.269,353.482z
									 M191.371,355.443c0.934-0.027,1.75-0.235,2.441-0.636c0.697-0.405,1.054-0.878,1.097-1.42
									c0.043-0.541-0.261-1.003-0.91-1.378c-0.656-0.379-1.454-0.553-2.389-0.526c-0.935,0.027-1.744,0.238-2.441,0.644
									c-0.691,0.401-1.054,0.871-1.097,1.412c-0.036,0.538,0.274,0.996,0.929,1.374
									C189.651,355.288,190.443,355.466,191.371,355.443"/>
							</g>
						</g>
						<g style="enable-background:new    ;">
							<g>
								<path style="fill:#FFFFFF;" d="M203.582,355.792c0.525,0.303,0.958,0.659,1.3,1.06c0.342,0.409,0.547,0.814,0.608,1.227
									l-2.156,0.227c-0.161-0.689-0.608-1.242-1.33-1.658c-0.288-0.167-0.59-0.257-0.897-0.276
									c-0.301-0.015-0.562,0.038-0.79,0.17c-0.228,0.133-0.306,0.292-0.233,0.492c0.073,0.193,0.389,0.557,0.947,1.09
									c0.559,0.534,0.862,1.026,0.91,1.477c0.048,0.443-0.283,0.871-0.973,1.272c-0.697,0.405-1.526,0.583-2.481,0.53
									c-0.961-0.049-1.865-0.322-2.724-0.818c-1.239-0.715-1.898-1.624-1.976-2.726l2.307-0.133
									c0.103,0.912,0.519,1.575,1.234,1.988c0.321,0.185,0.642,0.288,0.963,0.314c0.32,0.026,0.595-0.027,0.829-0.163
									c0.235-0.136,0.319-0.299,0.259-0.492c-0.053-0.189-0.297-0.496-0.731-0.905c-0.697-0.651-1.079-1.196-1.153-1.639
									c-0.081-0.447,0.25-0.882,0.986-1.31c0.736-0.428,1.572-0.602,2.507-0.53C201.918,355.065,202.789,355.333,203.582,355.792z
									"/>
							</g>
						</g>
						<g style="enable-background:new    ;">
							<g>
								<polygon style="fill:#FFFFFF;" points="209.708,359.54 201.949,364.049 200.205,363.042 207.964,358.533 								"/>
							</g>
						</g>
						<g style="enable-background:new    ;">
							<g>
								<path style="fill:#FFFFFF;" d="M214.383,362.027c0.525,0.303,0.951,0.655,1.3,1.06c0.342,0.409,0.547,0.814,0.608,1.227
									l-2.156,0.227c-0.161-0.689-0.608-1.242-1.33-1.658c-0.288-0.167-0.59-0.257-0.897-0.276
									c-0.307-0.019-0.562,0.038-0.79,0.17c-0.228,0.132-0.306,0.292-0.232,0.492c0.073,0.193,0.389,0.556,0.947,1.09
									c0.559,0.534,0.862,1.026,0.904,1.473c0.055,0.447-0.276,0.875-0.967,1.276c-0.697,0.405-1.526,0.583-2.481,0.53
									c-0.961-0.049-1.871-0.326-2.724-0.818c-1.239-0.716-1.898-1.624-1.976-2.726l2.307-0.133
									c0.103,0.912,0.519,1.575,1.233,1.988c0.321,0.185,0.642,0.288,0.963,0.314c0.32,0.027,0.595-0.026,0.829-0.163
									c0.235-0.136,0.319-0.299,0.259-0.492c-0.053-0.189-0.297-0.496-0.731-0.905c-0.697-0.651-1.079-1.196-1.16-1.643
									c-0.074-0.443,0.256-0.878,0.993-1.306c0.736-0.428,1.572-0.602,2.507-0.53C212.718,361.3,213.589,361.569,214.383,362.027z
									"/>
							</g>
						</g>
					</g>
				</g>
				<g>
					<g>
						<defs>
							<path id="SVGID_00000176036444721833610950000004529815827960034465_" d="M213.257,268.946c0,0,22.904,37.151,89.451,41.465
								c42.062,2.726,41.299-18.493,41.299-28.441c0-9.948,51.947-91.994,51.947-101.576s-12.866-88.167-73.916-119.67
								c-46.333-23.908-145.351-16.039-157.21,23.322c-11.859,39.361-43.006,128.311-33.232,146.165
								S213.257,268.946,213.257,268.946z"/>
						</defs>
						<clipPath id="SVGID_00000026848430477853585590000012898802983355965590_">
							<use xlink:href="#SVGID_00000176036444721833610950000004529815827960034465_"  style="overflow:visible;"/>
						</clipPath>
						<g style="clip-path:url(#SVGID_00000026848430477853585590000012898802983355965590_);">
							<g>
								<g>
									<path style="opacity:0.07;fill:#010101;" d="M260.782,191.102c0,0,21.021,1.77,27.359-1.583c0,0-7.397,6.485-27.793,4.782
										L260.782,191.102z"/>
									<g>
										<path style="fill:#FFB681;" d="M287.557,89.72c0,0,9.119,1.964,18.788,7.483c9.913,5.657,20.402,15.057,22.229,29.907
											c1.052,8.552,0.61,16.867-1.313,24.538c-4.677,18.645-18.086,33.471-39.974,38.586
											c-15.445,3.61-32.341,1.926-45.148-7.344c-12.811-9.268-20.933-29.584-18.348-46.824
											c2.585-17.24,9.775-26.589,21.07-34.906C256.157,92.842,270.956,89.013,287.557,89.72z"/>
										<g>
											<path style="fill:#FFFFFF;" d="M258.57,158.786c0.765,2.884,2.917,5.212,5.806,5.638
												c3.306,0.487,6.151-1.593,8.047-4.257C273.437,158.743,258.117,157.071,258.57,158.786z"/>
										</g>
										<g>
											<path style="fill:#ED8A43;" d="M264.598,152.544c-0.032,0.001-0.063,0.002-0.094-0.001c-0.15-0.01-1.47-0.09-2.329-0.32
												c-2.075-0.556-2.844-1.68-3.122-2.524c-0.288-0.874-0.342-2.32,1.048-4.247c1.234-1.71,1.355-5.085,1.295-6.243
												c-0.031-0.609,0.415-1.134,0.995-1.164c0.01,0,0.016-0.001,0.024-0.001c0.57-0.02,1.051,0.445,1.085,1.048
												c0.01,0.201,0.235,4.997-1.722,7.706c-0.633,0.878-0.902,1.667-0.737,2.169c0.154,0.468,0.742,0.86,1.65,1.102
												c0.561,0.149,1.584,0.235,1.929,0.256c0.582,0.035,1.029,0.559,0.993,1.17
												C265.581,152.077,265.137,152.526,264.598,152.544z"/>
										</g>
										<path style="opacity:0.32;fill:#FB9A4D;" d="M226.859,162.922c1.488,0.725,3.151,1.104,4.902,1.044
											c5.984-0.207,10.675-5.489,10.48-11.799c-0.196-6.31-5.205-11.26-11.189-11.053c-2.243,0.077-4.307,0.868-5.996,2.159"/>
									</g>
									<path style="fill:#002019;" d="M241.685,139.531c-0.08,2.348,1.13,4.299,2.702,4.359c1.573,0.062,2.916-1.793,2.998-4.138
										c0.081-2.348-1.128-4.302-2.705-4.361C243.106,135.331,241.765,137.184,241.685,139.531z"/>
									<path style="fill:#002019;" d="M286.18,143.005c-0.08,2.348,1.13,4.299,2.702,4.359c1.573,0.062,2.916-1.793,2.998-4.138
										c0.081-2.348-1.128-4.302-2.705-4.361C287.602,138.804,286.261,140.657,286.18,143.005z"/>
								</g>
								<path style="opacity:0.32;fill:#FB9A4D;" d="M317.117,154.135c0.209,6.73-4.795,12.365-11.175,12.586
									c-6.381,0.22-11.725-5.057-11.934-11.788c-0.209-6.727,4.796-12.363,11.177-12.583
									C311.565,142.13,316.908,147.408,317.117,154.135z"/>
								<g>
									<path style="fill:#FFB681;" d="M316.676,163.16c0.603,0.152,1.958,0.32,2.61,0.298c3.904-0.135,6.966-3.583,6.839-7.703
										c-0.128-4.117-3.397-7.346-7.302-7.211c-0.979,0.034-2.301-0.301-3.135,0.108c0,0,1.204,4.431,1.096,9.47
										C316.676,163.16,316.676,163.16,316.676,163.16z"/>
									<g style="opacity:0.37;">
										<path style="fill:#ED8A43;" d="M322.597,157.449c-0.51,0.018-0.973-0.354-1.076-0.902
											c-0.575-3.079-3.32-3.412-3.437-3.426c-0.58-0.061-1.008-0.609-0.952-1.22c0.058-0.609,0.568-1.058,1.147-1.003
											c1.532,0.139,4.616,1.413,5.326,5.219c0.113,0.605-0.263,1.193-0.838,1.312
											C322.708,157.442,322.65,157.447,322.597,157.449z"/>
									</g>
								</g>
								<g>
									<path style="fill:#FFFFFF;" d="M242.71,200.441c0,0-9.016,2.596-13.97,17.699c-5.405,16.475-10.752,48.844-12.54,66.206
										c-3.426,33.275-2.416,48.369-2.416,48.369l21.683,6.058L242.71,200.441z"/>
								</g>
								<path style="fill:#FFFFFF;" d="M229.881,258.766c0,0,2.158,7.218,2.158,17.949c0,10.733-12.147,117.262-12.147,117.262
									s110.059,19.826,109.472,4.117c-0.585-15.711,0.002-100.124,0.002-100.124s4.658-75.615-22.546-95.563
									c-15.341-11.249-24.019-10.407-35.647-10.597c-13.079-0.217-20.977,1.456-28.464,6.648
									C219.916,214.271,229.881,258.766,229.881,258.766z"/>
								<path style="opacity:0.08;fill:#070707;" d="M250.116,386.439l7.842-111.057c0.004-0.064,0.025-0.126,0.055-0.179
									l35.546-42.044l-6.303-8.636l10.312-0.904l5.899-23.179l2.069,1.105l-4.873,24.249l-8.68,0.962l4.724,7.556l-38.163,41.035
									l-5.708,112.567"/>
								<polygon style="opacity:0.08;fill:#070707;" points="249.505,194.767 248.392,214.751 254.816,218.569 247.648,220.124 
									257.907,275.197 244.272,218.201 248.877,217.434 245.244,215.135 244.687,197.181 								"/>
								<path style="fill:#00D3C2;" d="M296.52,196.829l-37.828,74.265l-0.471-78.573
									C258.221,192.521,288.52,195.204,296.52,196.829z"/>
								<g>
									<path style="fill:#FFB681;" d="M258.05,192.973c0.877-2.453,1.563-4.937,2-7.643c16.34,2.326,44.65-20.378,35.303,2.292
										c-0.987,2.394-1.37,6.98,1.167,9.207c0,0-11.98,3.938-23.436,2.838c-12.183-1.17-14.862-7.145-14.862-7.145"/>
								</g>
								<path style="opacity:0.32;fill:#FB9A4D;" d="M258.989,190.058c0,0,24.517,2.918,32.048-0.743c0,0-9.027,6.021-32.816,3.207
									L258.989,190.058z"/>
								<g>
									<g>
										<path style="fill:#7AE2E2;" d="M252.065,252.137c0,5.463-3.408,9.889-7.614,9.889c-4.204,0-7.611-4.426-7.611-9.889
											c0-5.464,3.407-9.893,7.611-9.893C248.656,242.245,252.065,246.674,252.065,252.137z"/>
										<path style="fill:#1D546D;" d="M248.406,252.137c0,4.803-2.998,8.698-6.696,8.698c-3.7,0-6.696-3.895-6.696-8.698
											c0-4.806,2.997-8.699,6.696-8.699C245.407,243.438,248.406,247.331,248.406,252.137z"/>
									</g>
									
										<path style="fill:none;stroke:#1D546D;stroke-width:2.1291;stroke-linecap:round;stroke-linejoin:round;stroke-miterlimit:10;" d="
										M244.45,244.312c0,0,3.347-31.967,6.798-42.78c1.292-4.055,3.542-7.992,6.793-9.89"/>
								</g>
								<polygon style="opacity:0.08;fill:#070707;" points="307.447,263.752 307.447,341.531 311.625,341.531 								"/>
								<g>
									
										<path style="fill:none;stroke:#1D546D;stroke-width:2.1291;stroke-linecap:round;stroke-linejoin:round;stroke-miterlimit:10;" d="
										M293.626,226.575c2.188-7.035,6.056-28.223,2.234-31.808"/>
									<g>
										
											<path style="fill:none;stroke:#1D546D;stroke-width:2.1291;stroke-linecap:round;stroke-linejoin:round;stroke-miterlimit:10;" d="
											M276.18,264.238c0,0,1.548-41.322,18.888-35.492c10.959,3.685,10.827,35.492,10.827,35.492"/>
										<path style="fill:#7AE2E2;" d="M279.001,264.237c0,1.88-1.264,3.403-2.82,3.403c-1.559,0-2.822-1.523-2.822-3.403
											c0-1.878,1.263-3.401,2.822-3.401C277.737,260.836,279.001,262.359,279.001,264.237z"/>
										<path style="fill:#7AE2E2;" d="M308.717,265.331c0,1.877-1.263,3.401-2.82,3.401c-1.559,0-2.822-1.524-2.822-3.401
											c0-1.879,1.263-3.402,2.822-3.402C307.453,261.929,308.717,263.452,308.717,265.331z"/>
									</g>
								</g>
								<path style="fill:#554047;" d="M333.333,193.752c14.23-5.755,30.933-20.361,24.481-39.174
									c-4.155-12.116-8.487-35.453-23.506-60.865c-10.671-18.054-41.723-25.489-64.326-21.324
									c-21.569,3.973-38.768,8.432-49.701,51.116c-10.932,42.684-11.349,37.577-14.771,43.059
									c-3.422,5.481,10.326,22.018,40.445,18.796l-4.574-3.036c0,0-10.862-6.801-14.021-28.497
									c-3.159-21.695,6.893-40.563,6.893-40.563s36.768,19.006,63.486,22.359c14.578,1.83,14.13,27.336,10.678,34.524
									c-5.161,10.747-16.032,15.969-13.246,19.569C303.467,200.441,321.554,198.515,333.333,193.752z"/>
							</g>
							<g>
								<g>
									<g>
										<path style="fill:#00BCAA;" d="M350.788,105.885c-4.138,0-8.236-0.754-9.017-0.905c-0.347-0.067-0.631-0.332-0.737-0.687
											c-0.106-0.356-0.017-0.744,0.232-1.009c0.935-0.998,9.299-9.707,14.891-8.313c1.827,0.456,3.121,1.88,3.848,4.234
											c0.65,2.108,0.021,3.472-0.621,4.246C357.81,105.347,354.285,105.885,350.788,105.885z M343.996,103.322
											c5.087,0.757,12.137,0.991,13.952-1.195c0.297-0.359,0.647-0.987,0.242-2.299c-0.514-1.664-1.323-2.612-2.473-2.899
											C352.445,96.113,347.006,100.458,343.996,103.322z"/>
									</g>
									<g>
										<path style="fill:#00BCAA;" d="M355.339,116.4c-5.176,0-13.103-9.128-14.032-10.221c-0.236-0.277-0.308-0.67-0.185-1.019
											c0.122-0.35,0.418-0.6,0.768-0.649c1.318-0.188,12.987-1.69,16.604,3.019c1.181,1.538,1.38,3.5,0.59,5.832
											c-0.707,2.087-1.995,2.762-2.952,2.96C355.876,116.374,355.612,116.4,355.339,116.4z M344.029,106.3
											c3.588,3.878,9.034,8.612,11.735,8.048c0.444-0.092,1.084-0.365,1.524-1.663c0.558-1.648,0.468-2.921-0.276-3.889
											C354.897,106.042,348.073,105.973,344.029,106.3z"/>
									</g>
								</g>
								<g>
									<g>
										<path style="fill:#00D3C2;" d="M343.678,121.01c0,0-56.025,11.434-116.734-17.064c0,0,3.615-19.806,9.749-27.775
											c6.135-7.969,74.117-19.027,101.253,12.477c0.598,0.695,1.187,1.392,1.668,2.163c5.546,8.913,7.303,30.039,7.303,30.039"
											/>
									</g>
									<g>
										<path style="fill:#00BCAA;" d="M311.453,94.004c-18.828,0-46.158-2.513-71.093-14.251
											c-0.721-0.34-1.045-1.232-0.723-1.993c0.322-0.76,1.168-1.102,1.89-0.762c42.623,20.067,92.426,12.691,92.923,12.614
											c0.78-0.125,1.508,0.45,1.622,1.274c0.115,0.824-0.427,1.59-1.209,1.711C334.648,92.629,325.376,94.004,311.453,94.004z"
											/>
									</g>
								</g>
							</g>
							<g>
								<path style="fill:#FFFFFF;" d="M180.355,164.661l3.808,39.029c0,0,51.751-1.539,58.547-5.231c0,0-5.795,32.911-9.059,38.563
									c-3.263,5.652-57.168-0.963-66.412-3.133c-9.244-2.17-10.276-65.22-10.276-65.22L180.355,164.661z"/>
								<g>
									<path style="fill:#FFB681;" d="M160.525,168.058c0,0-6.495-9.434-6.495-14.5c0-5.067,17.066-6.933,17.066-6.933
										s-2.662-8.329,0-9.866c2.662-1.537,6.133,8.266,6.133,15.199c0,6.933,0,13.238,0,13.238L160.525,168.058z"/>
									<path style="opacity:0.32;fill:#FB9A4D;" d="M156.03,158.669c0,0,5.822,2.178,9.6,2.178c3.778,0,8.4-4.089,8.4-6.755
										c0-2.667-2.073-6.257-2.073-6.257s3.613,3.59,3.613,5.368c0,3.155-2.552,6.073-5.273,7.644
										c-2.721,1.571-8.308,1.874-11.555,0C156.756,159.701,156.03,158.669,156.03,158.669z"/>
									<path style="opacity:0.32;fill:#FB9A4D;" d="M168.902,153.128c0,0,2.087,4.739,5.97,4.776
										c1.207,0.011,1.323-0.116,1.323-0.116s0.535-0.578-0.265-1.963c-0.799-1.385-0.36-5.2-0.36-5.2s-3.566-1.747-5.362-0.711
										C168.412,150.95,168.902,153.128,168.902,153.128z"/>
									<path style="fill:#FFB681;" d="M173.185,156.891c0,0-3.422-2.238-3.422-4.563c0-2.325,4.235-2.28,5.806-1.703
										c2.905,1.067,2.283,4.178,1.66,6.577C176.607,159.602,173.185,156.891,173.185,156.891z"/>
								</g>
							</g>
							<polygon style="opacity:0.08;fill:#070707;" points="224.044,222.021 221.361,239.252 223.383,239.252 							"/>
						</g>
					</g>
					
						<polyline style="fill:none;stroke:#00D3C2;stroke-width:3.3067;stroke-linecap:round;stroke-linejoin:round;stroke-miterlimit:10;" points="
						69.143,118.003 77.41,95.407 89.534,120.759 104.965,100.919 112.961,114.768 125.908,68.403 136.379,130.788 144.646,99.595 
						150.157,119.657 188.184,120.759 					"/>
				</g>
			</g>
			<g>
				<g>
					<path style="fill:#FFB681;" d="M342.02,360.638c0,0,28.144-15.266,35.869-33.626c1.528-3.631,2.693-6.393,3.309-8.739
						c-5.174,2.955-33.441,18.607-36.387,20.47"/>
					<path style="opacity:0.47;fill:#EAB28C;" d="M379.175,319.439c0,0-0.126,0.77-0.253,1.403
						c-1.172,5.852-2.541,9.364-2.541,9.364s4.816-10.012,4.816-11.934C380.015,318.954,379.175,319.439,379.175,319.439z"/>
				</g>
				<g>
					<path style="fill:#FFB681;" d="M251.384,387.981l-6.68-20.04c0,0-25.875-18.637-23.244-27.832
						c2.631-9.195,7.454-11.821,10.875-10.876c6.38,1.763,25.642,15.333,33.983,20.299c1.936,1.152,3.45,2.887,4.334,4.959
						l12.6,27.084l-29.302,39.993C253.95,421.568,247.602,404.727,251.384,387.981"/>
					<path style="opacity:0.29;fill:#FFFFFF;" d="M222.744,336.491c0,0,11.608,8.188,16.316,8.825
						c4.708,0.636,8.801-7.545,8.801-7.545c-1.762-1.191-10.851-7.839-17.146-9.017c-2.138-0.4-5.085,2.935-5.085,2.935
						L222.744,336.491z"/>
				</g>
				<g>
					<path style="fill:#FFB681;" d="M313.706,361.664l1.938-21.035c0,0-16.202-27.465-10.098-34.827
						c6.105-7.362,11.577-7.828,14.33-5.587c5.133,4.179,17.317,24.346,22.958,32.246c1.31,1.833,1.998,4.03,1.975,6.283
						l-2.79,21.896c-0.864,6.78-5.004,12.699-11.078,15.833c-9.159,4.725-21.742,10.999-23.493,10.735
						C299.061,385.942,311.119,366.367,313.706,361.664"/>
					<path style="opacity:0.29;fill:#FFFFFF;" d="M311.17,306.308c0,0,4.229,9.36,8.284,11.835c4.055,2.475,11.206-3.87,11.206-3.87
						c-1.134-1.799-6.934-11.944-12.66-14.811c-3.276-1.64-8.49,2.587-8.49,2.587L311.17,306.308z"/>
				</g>
				<g>
					<path style="fill:#FFB681;" d="M285.442,382.232c-1.926-5.015-6.276-17.867-4.669-28.029c0,0-22.985-26.325-17.757-38.772
						c4.073-9.697,11.275-8.758,15.414-4.785c4.139,3.972,25.204,23.763,27.699,27.071c2.495,3.307,7.031,11.647,8.449,20.238
						l2.389,16.006"/>
					<path style="fill:#F9D0AF;" d="M286.308,384.374c0,0-0.344-0.783-0.865-2.141"/>
					<path style="opacity:0.29;fill:#FFFFFF;" d="M266.637,317.669c0,0,7.062,9.27,12.13,11.005
						c5.069,1.735,13.143-5.19,13.143-5.19s-14.281-15.26-18.282-16.114c-4.317-0.921-10.328,6.255-10.328,6.255L266.637,317.669z"
						/>
				</g>
				<path style="opacity:0.32;fill:#FB9A4D;" d="M279.098,396.502c2.217-5.334,3.805-9.413,3.8-10.147
					c-0.015-2.429-1.858-9.85-1.858-9.85l2.663-1.566c0,0,4.848,5.612,3.229,11.145c-1.62,5.533-14.715,31.794-14.715,31.794
					l-3.052,0.702c0,0,8.465-18.981,13.579-31.285"/>
				<path style="opacity:0.32;fill:#FB9A4D;" d="M314.664,351.263c0,0,5.612,10.879,5.612,18.418c0,2.361-1.984,13.134-1.984,13.134
					l-4.72,2.205c0,0,3.411-15.216,3.015-17.865c-0.359-2.403-2.411-11.274-2.411-11.274L314.664,351.263z"/>
				<path style="opacity:0.32;fill:#FB9A4D;" d="M347.774,337.01c0,0,0.235,3.892-0.135,8.511
					c-0.189,2.354-2.845,13.505-2.845,13.505l-2.773,1.613c0,0,3.226-15.421,3.226-18.1c0-1.363-0.343-3.813-0.343-3.813
					L347.774,337.01z"/>
			</g>
		</g>
	</g>
</g>
</svg>
